<svg width="112" height="112" viewBox="0 0 112 112" fill="none" xmlns="http://www.w3.org/2000/svg">
  <defs>
    <linearGradient id="bg" x1="0" y1="0" x2="112" y2="112" gradientUnits="userSpaceOnUse">
      <stop stop-color="#0ea5e9"/>
      <stop offset="1" stop-color="#a21caf"/>
    </linearGradient>
    <radialGradient id="glow" cx="56" cy="56" r="56" gradientUnits="userSpaceOnUse">
      <stop offset="0.7" stop-color="#14b8a6" stop-opacity="0.15"/>
      <stop offset="1" stop-color="#a21caf" stop-opacity="0"/>
    </radialGradient>
    <filter id="shadow" x="0" y="0" width="112" height="112" filterUnits="userSpaceOnUse">
      <feDropShadow dx="0" dy="2" stdDeviation="3" flood-color="#a21caf" flood-opacity="0.25"/>
    </filter>
  </defs>
  <rect width="112" height="112" rx="28" fill="url(#bg)"/>
  <ellipse cx="56" cy="56" rx="45" ry="45" fill="url(#glow)" />
  <!-- Lock Body -->
  <rect x="33" y="54" width="46" height="36" rx="10" fill="#240057" stroke="#14B8A6" stroke-width="2.5" filter="url(#shadow)"/>
  <!-- Lock Shackle -->
  <path d="M44 54v-10a12 12 0 0 1 24 0v10" stroke="#a21caf" stroke-width="3" stroke-linecap="round" fill="none"/>
  <!-- Keyhole (Circle & Slot) -->
  <ellipse cx="56" cy="72" rx="7" ry="7.2" fill="#14B8A6" stroke="#a21caf" stroke-width="2"/>
  <rect x="53.5" y="78.5" width="5" height="9" rx="2.5" fill="#14B8A6" stroke="#240057" stroke-width="1.2"/>
  <!-- Toolkit/Gear effect: a toothed gear under lock, with shadow -->
  <g filter="url(#shadow)">
    <circle cx="56" cy="72" r="20" fill="none" stroke="#a21caf" stroke-width="2.2" stroke-dasharray="3 6"/>
    <!-- Tiny gear teeth -->
    <g>
      <rect x="55" y="50" width="2" height="7" rx="1" fill="#a21caf" transform="rotate(0 56 53.5)"/>
      <rect x="55" y="87" width="2" height="7" rx="1" fill="#a21caf" transform="rotate(180 56 90.5)"/>
      <rect x="80.5" y="71" width="7" height="2" rx="1" fill="#a21caf" transform="rotate(90 84 72)"/>
      <rect x="24.5" y="71" width="7" height="2" rx="1" fill="#a21caf" transform="rotate(-90 28 72)"/>
    </g>
  </g>
  <!-- Key overlay (toolkit) -->
  <g>
    <rect x="70" y="87" width="16" height="4" rx="2" fill="#14B8A6" transform="rotate(-20 70 87)"/>
    <circle cx="85" cy="89" r="3.2" fill="#a21caf" stroke="#14B8A6" stroke-width="1.2"/>
    <rect x="82.3" y="89.5" width="5" height="2" rx="1" fill="#a21caf" transform="rotate(-20 85.5 90.5)"/>
  </g>
  <!-- Subtle inner highlight -->
  <ellipse cx="56" cy="60" rx="34" ry="28" fill="none" stroke="#0ea5e9" stroke-width="1.2" opacity="0.25"/>
</svg>